# xmcd
#
# Track frame offsets:
#	150
#	14840
#	29962
#	51921
#	74904
#	100636
#	115978
#	130829
#	139644
#	162676
#
# Disc length: 2758 seconds
#
# Revision: 0
# Processed by: cddbd v1.5.2PL0 Copyright (c) Steve Scherf et al.
# Submitted via: dBpowerAMP V4.0
#
DISCID=9e0ac40a
DTITLE=Moreno Overá - Memória de Violeiro
DYEAR=2009
DGENRE=National Folk
TTITLE0=Viandante - Moreno and Ronaldo Silveira
TTITLE1=Beira de rio, beira de mar - Luis Pereque
TTITLE2=Bicho do mato - Moreno
TTITLE3=Remendo e retáio - Moreno and Erica Zanvettor
TTITLE4=Frutíferas quanticas - Moreno
TTITLE5=Yara - Moreno
TTITLE6=Mapinguari - Moreno and Roberto D' Angio
TTITLE7=Nossa voz - Moreno
TTITLE8=Violar - Moreno and Henrique dos Anjos
TTITLE9=Viola moura - Moreno
EXTD=
EXTT0=
EXTT1=
EXTT2=
EXTT3=
EXTT4=
EXTT5=
EXTT6=
EXTT7=
EXTT8=
EXTT9=
PLAYORDER=
